# xmcd
#
# Track frame offsets: 
#        150
#        14550
#        27725
#        40475
#
# Disc length: 717 seconds
#
# Revision: 3
# Processed by: cddbd v1.5.1PL0 Copyright (c) Steve Scherf et al.
# Submitted via: ExactAudioCopy v0.95a5
#
DISCID=3302cb04
DTITLE=Billie Holiday - Same Old Story (SingleCD)
DYEAR=1995
DGENRE=Blues
TTITLE0=Same Old Story
TTITLE1=Summertime
TTITLE2=Am I Blue?
TTITLE3=Night And Day
EXTD=
EXTT0=
EXTT1=
EXTT2=
EXTT3=
PLAYORDER=
